<?xml version="1.0" encoding="UTF-8" standalone="no"?>
<!DOCTYPE svg PUBLIC "-//W3C//DTD SVG 1.1//EN"
 "http://www.w3.org/Graphics/SVG/1.1/DTD/svg11.dtd">
<!-- Generated by graphviz version 2.47.0 (20210316.0004)
 -->
<!-- Title: dependencies Pages: 1 -->
<svg width="504pt" height="287pt"
 viewBox="0.00 0.00 504.00 287.00" xmlns="http://www.w3.org/2000/svg" xmlns:xlink="http://www.w3.org/1999/xlink">
<g id="graph0" class="graph" transform="scale(1 1) rotate(0) translate(4 283)">
<title>dependencies</title>
<polygon fill="white" stroke="transparent" points="-4,4 -4,-283 500,-283 500,4 -4,4"/>
<text text-anchor="start" x="227.01" y="-42.4" font-family="Times-12" font-weight="bold" font-size="14.00">Legend</text>
<polygon fill="#ffffb3" stroke="transparent" points="14,-10 14,-30 34,-30 34,-10 14,-10"/>
<text text-anchor="start" x="37.63" y="-15.4" font-family="Times-12" font-size="14.00"> &#160;Declarations</text>
<polygon fill="#8dd3c7" stroke="transparent" points="127,-10 127,-30 147,-30 147,-10 127,-10"/>
<text text-anchor="start" x="150.73" y="-15.4" font-family="Times-12" font-size="14.00"> &#160;Module</text>
<polygon fill="#80b1d3" stroke="transparent" points="213,-10 213,-30 233,-30 233,-10 213,-10"/>
<text text-anchor="start" x="236.78" y="-15.4" font-family="Times-12" font-size="14.00"> &#160;Bootstrap</text>
<polygon fill="#fdb462" stroke="transparent" points="310,-10 310,-30 330,-30 330,-10 310,-10"/>
<text text-anchor="start" x="333.67" y="-15.4" font-family="Times-12" font-size="14.00"> &#160;Providers</text>
<polygon fill="#fb8072" stroke="transparent" points="406,-10 406,-30 426,-30 426,-10 406,-10"/>
<text text-anchor="start" x="429.73" y="-15.4" font-family="Times-12" font-size="14.00"> &#160;Exports</text>
<g id="clust1" class="cluster">
<title>cluster_AppModule</title>
<polygon fill="none" stroke="black" stroke-dasharray="1,5" points="85.5,-146 85.5,-271 387.5,-271 387.5,-146 85.5,-146"/>
</g>
<g id="clust3" class="cluster">
<title>cluster_AppModule_imports</title>
<polygon fill="none" stroke="black" points="231.5,-154 231.5,-206 379.5,-206 379.5,-154 231.5,-154"/>
</g>
<g id="clust6" class="cluster">
<title>cluster_AppModule_providers</title>
<polygon fill="none" stroke="black" points="93.5,-154 93.5,-206 223.5,-206 223.5,-154 93.5,-154"/>
</g>
<g id="clust7" class="cluster">
<title>cluster_PseElementsModule</title>
<polygon fill="none" stroke="black" stroke-dasharray="1,5" points="200.5,-70 200.5,-138 410.5,-138 410.5,-70 200.5,-70"/>
</g>
<g id="clust12" class="cluster">
<title>cluster_PseElementsModule_providers</title>
<polygon fill="none" stroke="black" points="208.5,-78 208.5,-130 402.5,-130 402.5,-78 208.5,-78"/>
</g>
<!-- PseElementsModule -->
<g id="node1" class="node">
<title>PseElementsModule</title>
<polygon fill="#8dd3c7" stroke="black" points="371.09,-198 368.09,-202 347.09,-202 344.09,-198 239.91,-198 239.91,-162 371.09,-162 371.09,-198"/>
<text text-anchor="middle" x="305.5" y="-175.8" font-family="Times,serif" font-size="14.00">PseElementsModule</text>
</g>
<!-- AppModule -->
<g id="node2" class="node">
<title>AppModule</title>
<polygon fill="#8dd3c7" stroke="black" points="273.16,-263 270.16,-267 249.16,-267 246.16,-263 189.84,-263 189.84,-227 273.16,-227 273.16,-263"/>
<text text-anchor="middle" x="231.5" y="-240.8" font-family="Times,serif" font-size="14.00">AppModule</text>
</g>
<!-- PseElementsModule&#45;&gt;AppModule -->
<g id="edge1" class="edge">
<title>PseElementsModule&#45;&gt;AppModule</title>
<path fill="none" stroke="black" d="M256.64,-198.11C256.64,-198.11 256.64,-216.99 256.64,-216.99"/>
<polygon fill="black" stroke="black" points="253.14,-216.99 256.64,-226.99 260.14,-216.99 253.14,-216.99"/>
</g>
<!-- AppService -->
<g id="node3" class="node">
<title>AppService</title>
<ellipse fill="#fdb462" stroke="black" cx="158.5" cy="-180" rx="56.74" ry="18"/>
<text text-anchor="middle" x="158.5" y="-175.8" font-family="Times,serif" font-size="14.00">AppService</text>
</g>
<!-- AppService&#45;&gt;AppModule -->
<g id="edge2" class="edge">
<title>AppService&#45;&gt;AppModule</title>
<path fill="none" stroke="black" d="M202.4,-191.62C202.4,-191.62 202.4,-216.85 202.4,-216.85"/>
<polygon fill="black" stroke="black" points="198.9,-216.85 202.4,-226.85 205.9,-216.85 198.9,-216.85"/>
</g>
<!-- PseElementsService -->
<g id="node4" class="node">
<title>PseElementsService</title>
<ellipse fill="#fdb462" stroke="black" cx="305.5" cy="-104" rx="89.18" ry="18"/>
<text text-anchor="middle" x="305.5" y="-99.8" font-family="Times,serif" font-size="14.00">PseElementsService</text>
</g>
<!-- PseElementsService&#45;&gt;PseElementsModule -->
<g id="edge3" class="edge">
<title>PseElementsService&#45;&gt;PseElementsModule</title>
<path fill="none" stroke="black" d="M305.5,-122.01C305.5,-122.01 305.5,-151.85 305.5,-151.85"/>
<polygon fill="black" stroke="black" points="302,-151.85 305.5,-161.85 309,-151.85 302,-151.85"/>
</g>
</g>
</svg>
